<svg width="24" height="24" viewBox="0 0 24 24" fill="none" xmlns="http://www.w3.org/2000/svg">
<path fill-rule="evenodd" clip-rule="evenodd" d="M21.531 17.031C21.4613 17.1008 21.3786 17.1563 21.2875 17.1941C21.1963 17.2319 21.0987 17.2513 21 17.2513C20.9014 17.2513 20.8037 17.2319 20.7126 17.1941C20.6214 17.1563 20.5387 17.1008 20.469 17.031L12 8.5605L3.531 17.031C3.39017 17.1718 3.19917 17.2509 3 17.2509C2.80084 17.2509 2.60983 17.1718 2.469 17.031C2.32817 16.8902 2.24906 16.6992 2.24906 16.5C2.24906 16.3008 2.32817 16.1098 2.469 15.969L11.469 6.969C11.5387 6.89915 11.6214 6.84374 11.7126 6.80593C11.8037 6.76812 11.9014 6.74866 12 6.74866C12.0987 6.74866 12.1963 6.76812 12.2875 6.80593C12.3786 6.84374 12.4613 6.89915 12.531 6.969L21.531 15.969C21.6008 16.0387 21.6563 16.1214 21.6941 16.2125C21.7319 16.3037 21.7513 16.4013 21.7513 16.5C21.7513 16.5987 21.7319 16.6963 21.6941 16.7874C21.6563 16.8786 21.6008 16.9613 21.531 17.031V17.031Z" fill="white"/>
</svg>
