<svg width="24" height="24" viewBox="0 0 24 24" fill="none" xmlns="http://www.w3.org/2000/svg">
<path fill-rule="evenodd" clip-rule="evenodd" d="M2.469 6.969C2.53867 6.89916 2.62143 6.84374 2.71255 6.80593C2.80367 6.76812 2.90135 6.74866 3 6.74866C3.09865 6.74866 3.19633 6.76812 3.28745 6.80593C3.37857 6.84374 3.46133 6.89916 3.531 6.969L12 15.4395L20.469 6.969C20.6098 6.82817 20.8008 6.74905 21 6.74905C21.1992 6.74905 21.3902 6.82817 21.531 6.969C21.6718 7.10983 21.7509 7.30084 21.7509 7.5C21.7509 7.69916 21.6718 7.89017 21.531 8.031L12.531 17.031C12.4613 17.1008 12.3786 17.1563 12.2874 17.1941C12.1963 17.2319 12.0986 17.2513 12 17.2513C11.9013 17.2513 11.8037 17.2319 11.7125 17.1941C11.6214 17.1563 11.5387 17.1008 11.469 17.031L2.469 8.031C2.39915 7.96133 2.34374 7.87857 2.30593 7.78745C2.26812 7.69633 2.24866 7.59865 2.24866 7.5C2.24866 7.40135 2.26812 7.30367 2.30593 7.21255C2.34374 7.12143 2.39915 7.03867 2.469 6.969V6.969Z" fill="white"/>
</svg>
