<svg xmlns="http://www.w3.org/2000/svg" xmlns:xlink="http://www.w3.org/1999/xlink" width="1920" zoomAndPan="magnify" viewBox="0 0 1440 809.999993" height="1080" preserveAspectRatio="xMidYMid meet" version="1.0"><defs><clipPath id="a1cd05f4c5"><path d="M 0 0 L 1264.300781 0 L 1264.300781 810 L 0 810 Z M 0 0 " clip-rule="nonzero"/></clipPath><clipPath id="16d4bc0edf"><path d="M 98 185 L 522.75 185 L 522.75 610 L 98 610 Z M 98 185 " clip-rule="nonzero"/></clipPath><clipPath id="4dcfb05ceb"><path d="M 102 184.214844 L 522.75 184.214844 L 522.75 605 L 102 605 Z M 102 184.214844 " clip-rule="nonzero"/></clipPath></defs><g clip-path="url(#a1cd05f4c5)"><path fill="#70472c" d="M 1264.046875 838.953125 C 1262.234375 838.953125 1260.433594 838.953125 1258.617188 838.953125 C 841.464844 838.953125 424.324219 838.9375 7.167969 839.070312 C 1.578125 839.070312 -0.046875 837.859375 -0.046875 832 C 0.101562 454.496094 0.0859375 76.992188 0.101562 -300.496094 C 0.101562 -312.730469 1.738281 -314.296875 14.03125 -312.214844 C 36.0625 -308.511719 58.152344 -304.867188 80.242188 -301.738281 C 106.640625 -298.003906 132.242188 -291.46875 157.960938 -285.152344 C 181.542969 -279.367188 204.503906 -271.589844 227.167969 -262.765625 C 237.214844 -258.855469 247.546875 -255.652344 257.242188 -250.859375 C 274.625 -242.253906 292.375 -234.597656 308.738281 -223.75 C 327.332031 -211.429688 345.527344 -198.726562 362.363281 -184.144531 C 370.789062 -176.84375 378.933594 -169.226562 386.859375 -161.304688 C 394.871094 -153.292969 402.839844 -145.117188 410.925781 -137.132812 C 418.097656 -130.050781 424.414062 -122.066406 430.773438 -114.21875 C 441.808594 -100.597656 453.203125 -87.183594 463.339844 -72.898438 C 474.15625 -57.671875 483.511719 -41.410156 493.839844 -25.828125 C 504.714844 -9.417969 513.835938 7.992188 523.027344 25.300781 C 528.960938 36.472656 534.316406 48.085938 539.332031 59.757812 C 548.261719 80.535156 557.734375 101.101562 565.863281 122.175781 C 572.136719 138.4375 580.148438 154.019531 585.535156 170.515625 C 591.863281 189.921875 600.703125 208.425781 606.414062 227.945312 C 612.523438 248.8125 620.992188 268.878906 626.777344 289.761719 C 632.429688 310.152344 641.121094 329.511719 646.507812 349.890625 C 652.15625 371.316406 660.804688 391.636719 667.535156 412.617188 C 675.175781 436.421875 685.535156 459.011719 695.878906 481.589844 C 702.726562 496.523438 710.265625 511.335938 719.785156 524.855469 C 728.578125 537.351562 737.59375 549.703125 747.082031 561.699219 C 758.949219 576.691406 771.960938 590.53125 786.144531 603.355469 C 795.835938 612.121094 806.003906 620.429688 816.835938 627.480469 C 827.769531 634.59375 838.097656 643.003906 850.023438 648.316406 C 864.425781 654.722656 877.734375 663.207031 892.238281 669.285156 C 917.382812 679.835938 942.675781 690.019531 968.394531 699.152344 C 987.917969 706.085938 1007.777344 711.988281 1027.199219 719.234375 C 1037.027344 722.910156 1046.75 727.203125 1056.902344 729.652344 C 1074.09375 733.8125 1090.132812 741.058594 1106.820312 746.519531 C 1125.3125 752.585938 1142.855469 760.714844 1160.355469 769.214844 C 1172.871094 775.292969 1184.097656 783.527344 1196.464844 789.402344 C 1209.671875 795.6875 1220.324219 805.441406 1232.867188 812.539062 C 1240.585938 816.90625 1246.917969 823.707031 1253.882812 829.390625 C 1257.332031 832.207031 1260.832031 834.953125 1264.3125 837.726562 C 1264.238281 838.125 1264.136719 838.539062 1264.046875 838.953125 Z M 1264.046875 838.953125 " fill-opacity="1" fill-rule="nonzero"/></g><g clip-path="url(#16d4bc0edf)"><path fill="#231f20" d="M 522.050781 397.496094 C 522.050781 400.960938 521.964844 404.425781 521.792969 407.890625 C 521.625 411.355469 521.371094 414.8125 521.03125 418.261719 C 520.691406 421.710938 520.265625 425.152344 519.757812 428.582031 C 519.246094 432.011719 518.65625 435.429688 517.976562 438.828125 C 517.300781 442.230469 516.542969 445.613281 515.699219 448.976562 C 514.855469 452.339844 513.933594 455.679688 512.925781 459 C 511.917969 462.316406 510.832031 465.609375 509.664062 468.871094 C 508.496094 472.136719 507.246094 475.371094 505.917969 478.574219 C 504.59375 481.777344 503.1875 484.945312 501.703125 488.082031 C 500.222656 491.214844 498.664062 494.3125 497.027344 497.371094 C 495.394531 500.429688 493.683594 503.445312 491.902344 506.417969 C 490.121094 509.390625 488.265625 512.320312 486.339844 515.203125 C 484.410156 518.085938 482.414062 520.921875 480.347656 523.707031 C 478.285156 526.488281 476.152344 529.222656 473.949219 531.902344 C 471.75 534.582031 469.484375 537.207031 467.15625 539.777344 C 464.828125 542.34375 462.4375 544.855469 459.984375 547.308594 C 457.535156 549.757812 455.023438 552.148438 452.453125 554.476562 C 449.882812 556.804688 447.257812 559.070312 444.578125 561.269531 C 441.898438 563.46875 439.164062 565.601562 436.378906 567.664062 C 433.59375 569.730469 430.757812 571.726562 427.875 573.652344 C 424.992188 575.578125 422.0625 577.433594 419.089844 579.214844 C 416.113281 580.996094 413.097656 582.707031 410.039062 584.339844 C 406.980469 585.972656 403.886719 587.53125 400.75 589.011719 C 397.617188 590.496094 394.445312 591.898438 391.242188 593.226562 C 388.039062 594.554688 384.804688 595.800781 381.539062 596.96875 C 378.273438 598.136719 374.984375 599.222656 371.664062 600.226562 C 368.347656 601.234375 365.003906 602.15625 361.640625 603 C 358.277344 603.839844 354.894531 604.601562 351.496094 605.277344 C 348.09375 605.953125 344.679688 606.542969 341.246094 607.050781 C 337.816406 607.558594 334.378906 607.984375 330.925781 608.324219 C 327.476562 608.660156 324.019531 608.917969 320.554688 609.085938 C 317.09375 609.253906 313.625 609.339844 310.160156 609.339844 C 306.691406 609.335938 303.226562 609.253906 299.761719 609.082031 C 296.300781 608.910156 292.84375 608.65625 289.390625 608.3125 C 285.941406 607.972656 282.5 607.546875 279.070312 607.039062 C 275.640625 606.527344 272.226562 605.933594 268.824219 605.257812 C 265.425781 604.582031 262.042969 603.820312 258.679688 602.976562 C 255.316406 602.132812 251.976562 601.207031 248.65625 600.199219 C 245.339844 599.191406 242.046875 598.105469 238.785156 596.9375 C 235.519531 595.765625 232.285156 594.519531 229.082031 593.191406 C 225.878906 591.863281 222.710938 590.457031 219.578125 588.972656 C 216.441406 587.492188 213.347656 585.929688 210.289062 584.296875 C 207.230469 582.660156 204.214844 580.949219 201.242188 579.167969 C 198.269531 577.382812 195.339844 575.527344 192.457031 573.601562 C 189.574219 571.671875 186.742188 569.675781 183.957031 567.609375 C 181.171875 565.542969 178.441406 563.410156 175.761719 561.210938 C 173.082031 559.007812 170.457031 556.742188 167.890625 554.414062 C 165.320312 552.085938 162.8125 549.695312 160.359375 547.242188 C 157.910156 544.789062 155.519531 542.277344 153.191406 539.707031 C 150.863281 537.136719 148.601562 534.511719 146.402344 531.832031 C 144.203125 529.148438 142.070312 526.414062 140.007812 523.628906 C 137.941406 520.84375 135.949219 518.007812 134.023438 515.125 C 132.097656 512.242188 130.242188 509.3125 128.460938 506.335938 C 126.679688 503.363281 124.972656 500.347656 123.339844 497.289062 C 121.707031 494.230469 120.148438 491.132812 118.667969 487.996094 C 117.1875 484.863281 115.78125 481.691406 114.457031 478.488281 C 113.128906 475.285156 111.882812 472.050781 110.71875 468.785156 C 109.550781 465.519531 108.464844 462.226562 107.460938 458.910156 C 106.453125 455.589844 105.53125 452.25 104.691406 448.886719 C 103.847656 445.519531 103.089844 442.136719 102.414062 438.738281 C 101.742188 435.335938 101.148438 431.921875 100.640625 428.492188 C 100.132812 425.058594 99.710938 421.621094 99.375 418.167969 C 99.035156 414.71875 98.78125 411.261719 98.613281 407.796875 C 98.445312 404.335938 98.359375 400.867188 98.363281 397.402344 C 98.363281 393.933594 98.449219 390.46875 98.621094 387.003906 C 98.792969 383.542969 99.050781 380.085938 99.390625 376.632812 C 99.734375 373.183594 100.160156 369.742188 100.667969 366.3125 C 101.179688 362.882812 101.773438 359.46875 102.453125 356.070312 C 103.128906 352.667969 103.890625 349.285156 104.734375 345.921875 C 105.578125 342.558594 106.503906 339.21875 107.511719 335.902344 C 108.523438 332.585938 109.609375 329.292969 110.78125 326.027344 C 111.949219 322.765625 113.199219 319.53125 114.527344 316.328125 C 115.855469 313.125 117.261719 309.957031 118.746094 306.824219 C 120.230469 303.691406 121.792969 300.59375 123.425781 297.535156 C 125.0625 294.480469 126.773438 291.464844 128.558594 288.492188 C 130.339844 285.519531 132.199219 282.589844 134.125 279.707031 C 136.054688 276.824219 138.050781 273.992188 140.117188 271.210938 C 142.183594 268.425781 144.320312 265.695312 146.519531 263.015625 C 148.722656 260.335938 150.988281 257.710938 153.316406 255.144531 C 155.648438 252.574219 158.039062 250.066406 160.492188 247.617188 C 162.945312 245.164062 165.457031 242.777344 168.027344 240.449219 C 170.597656 238.121094 173.222656 235.859375 175.90625 233.660156 C 178.585938 231.464844 181.320312 229.332031 184.109375 227.269531 C 186.894531 225.203125 189.730469 223.210938 192.613281 221.285156 C 195.496094 219.359375 198.425781 217.507812 201.402344 215.726562 C 204.378906 213.945312 207.394531 212.238281 210.453125 210.605469 C 213.511719 208.972656 216.609375 207.417969 219.746094 205.9375 C 222.882812 204.453125 226.050781 203.050781 229.253906 201.726562 C 232.460938 200.402344 235.695312 199.15625 238.960938 197.992188 C 242.226562 196.824219 245.519531 195.738281 248.835938 194.734375 C 252.15625 193.730469 255.496094 192.808594 258.859375 191.96875 C 262.226562 191.125 265.609375 190.371094 269.007812 189.695312 C 272.410156 189.019531 275.824219 188.429688 279.257812 187.921875 C 282.6875 187.417969 286.128906 186.996094 289.578125 186.65625 C 293.027344 186.320312 296.484375 186.066406 299.949219 185.898438 C 303.414062 185.730469 306.878906 185.648438 310.347656 185.652344 C 313.8125 185.652344 317.273438 185.738281 320.738281 185.910156 C 324.199219 186.082031 327.652344 186.339844 331.101562 186.679688 C 334.550781 187.023438 337.988281 187.449219 341.417969 187.957031 C 344.84375 188.46875 348.257812 189.0625 351.65625 189.738281 C 355.054688 190.417969 358.4375 191.175781 361.796875 192.019531 C 365.160156 192.863281 368.496094 193.789062 371.8125 194.796875 C 375.128906 195.804688 378.417969 196.894531 381.683594 198.0625 C 384.945312 199.230469 388.175781 200.480469 391.378906 201.808594 C 394.578125 203.132812 397.746094 204.539062 400.878906 206.023438 C 404.011719 207.507812 407.105469 209.066406 410.160156 210.699219 C 413.214844 212.335938 416.230469 214.042969 419.203125 215.828125 C 422.175781 217.609375 425.101562 219.464844 427.980469 221.390625 C 430.863281 223.316406 433.695312 225.3125 436.476562 227.378906 C 439.261719 229.445312 441.992188 231.578125 444.667969 233.777344 C 447.347656 235.976562 449.96875 238.238281 452.535156 240.566406 C 455.105469 242.894531 457.613281 245.285156 460.0625 247.738281 C 462.511719 250.1875 464.898438 252.699219 467.226562 255.269531 C 469.554688 257.835938 471.816406 260.460938 474.011719 263.140625 C 476.210938 265.820312 478.339844 268.550781 480.40625 271.335938 C 482.46875 274.121094 484.464844 276.953125 486.386719 279.835938 C 488.3125 282.71875 490.164062 285.644531 491.945312 288.617188 C 493.726562 291.59375 495.433594 294.605469 497.066406 297.664062 C 498.699219 300.71875 500.257812 303.816406 501.738281 306.949219 C 503.21875 310.082031 504.621094 313.25 505.945312 316.453125 C 507.273438 319.65625 508.519531 322.886719 509.683594 326.152344 C 510.851562 329.414062 511.9375 332.703125 512.945312 336.019531 C 513.949219 339.335938 514.871094 342.675781 515.714844 346.039062 C 516.554688 349.402344 517.3125 352.78125 517.988281 356.179688 C 518.664062 359.578125 519.253906 362.992188 519.761719 366.421875 C 520.269531 369.851562 520.695312 373.289062 521.035156 376.738281 C 521.371094 380.1875 521.628906 383.640625 521.796875 387.105469 C 521.964844 390.566406 522.050781 394.027344 522.050781 397.496094 Z M 522.050781 397.496094 " fill-opacity="0.4" fill-rule="nonzero"/></g><g clip-path="url(#4dcfb05ceb)"><path fill="#ededed" d="M 522.050781 394.238281 C 522.050781 397.675781 521.964844 401.113281 521.796875 404.542969 C 521.628906 407.976562 521.375 411.40625 521.039062 414.824219 C 520.703125 418.246094 520.28125 421.65625 519.777344 425.054688 C 519.273438 428.457031 518.683594 431.839844 518.015625 435.210938 C 517.34375 438.585938 516.589844 441.9375 515.753906 445.269531 C 514.921875 448.605469 514.003906 451.917969 513.007812 455.207031 C 512.007812 458.496094 510.929688 461.757812 509.773438 464.992188 C 508.613281 468.230469 507.378906 471.4375 506.0625 474.613281 C 504.746094 477.789062 503.355469 480.929688 501.886719 484.035156 C 500.414062 487.144531 498.871094 490.210938 497.25 493.242188 C 495.628906 496.273438 493.9375 499.265625 492.167969 502.214844 C 490.402344 505.160156 488.5625 508.0625 486.65625 510.921875 C 484.746094 513.78125 482.765625 516.589844 480.71875 519.351562 C 478.671875 522.109375 476.558594 524.820312 474.375 527.476562 C 472.195312 530.132812 469.953125 532.734375 467.644531 535.28125 C 465.335938 537.828125 462.964844 540.316406 460.535156 542.75 C 458.105469 545.179688 455.617188 547.546875 453.070312 549.855469 C 450.523438 552.164062 447.921875 554.410156 445.265625 556.589844 C 442.605469 558.769531 439.898438 560.882812 437.136719 562.933594 C 434.375 564.980469 431.566406 566.957031 428.710938 568.867188 C 425.851562 570.777344 422.949219 572.617188 420 574.382812 C 417.050781 576.148438 414.0625 577.84375 411.03125 579.464844 C 408 581.082031 404.929688 582.628906 401.824219 584.097656 C 398.714844 585.566406 395.574219 586.960938 392.398438 588.277344 C 389.222656 589.589844 386.015625 590.828125 382.78125 591.984375 C 379.542969 593.144531 376.28125 594.222656 372.992188 595.21875 C 369.703125 596.21875 366.390625 597.132812 363.058594 597.96875 C 359.722656 598.804688 356.371094 599.558594 353 600.226562 C 349.628906 600.898438 346.242188 601.484375 342.84375 601.988281 C 339.441406 602.496094 336.03125 602.914062 332.613281 603.25 C 329.191406 603.589844 325.765625 603.839844 322.332031 604.011719 C 318.898438 604.179688 315.464844 604.261719 312.027344 604.261719 C 308.589844 604.261719 305.152344 604.179688 301.722656 604.011719 C 298.289062 603.839844 294.859375 603.589844 291.441406 603.25 C 288.019531 602.914062 284.609375 602.496094 281.210938 601.988281 C 277.808594 601.484375 274.421875 600.898438 271.050781 600.226562 C 267.679688 599.558594 264.328125 598.804688 260.996094 597.96875 C 257.660156 597.132812 254.347656 596.21875 251.058594 595.21875 C 247.769531 594.222656 244.507812 593.144531 241.269531 591.984375 C 238.035156 590.828125 234.828125 589.589844 231.652344 588.277344 C 228.476562 586.960938 225.335938 585.566406 222.230469 584.097656 C 219.121094 582.628906 216.054688 581.082031 213.023438 579.464844 C 209.992188 577.84375 207 576.148438 204.050781 574.382812 C 201.105469 572.617188 198.199219 570.777344 195.34375 568.867188 C 192.484375 566.957031 189.675781 564.980469 186.914062 562.933594 C 184.15625 560.882812 181.445312 558.769531 178.789062 556.589844 C 176.132812 554.410156 173.53125 552.164062 170.984375 549.855469 C 168.4375 547.546875 165.949219 545.179688 163.515625 542.75 C 161.085938 540.316406 158.71875 537.828125 156.410156 535.28125 C 154.101562 532.734375 151.855469 530.132812 149.675781 527.476562 C 147.496094 524.820312 145.382812 522.109375 143.332031 519.351562 C 141.285156 516.589844 139.308594 513.78125 137.398438 510.921875 C 135.488281 508.0625 133.648438 505.160156 131.882812 502.214844 C 130.117188 499.265625 128.421875 496.273438 126.800781 493.242188 C 125.179688 490.210938 123.636719 487.144531 122.167969 484.035156 C 120.699219 480.929688 119.304688 477.789062 117.988281 474.613281 C 116.675781 471.4375 115.4375 468.230469 114.28125 464.992188 C 113.121094 461.757812 112.042969 458.496094 111.046875 455.207031 C 110.046875 451.917969 109.132812 448.605469 108.296875 445.269531 C 107.460938 441.9375 106.707031 438.585938 106.039062 435.210938 C 105.367188 431.839844 104.78125 428.457031 104.277344 425.054688 C 103.769531 421.65625 103.351562 418.246094 103.015625 414.824219 C 102.675781 411.40625 102.425781 407.976562 102.253906 404.542969 C 102.085938 401.113281 102.003906 397.675781 102.003906 394.238281 C 102.003906 390.800781 102.085938 387.367188 102.253906 383.933594 C 102.425781 380.5 102.675781 377.074219 103.015625 373.652344 C 103.351562 370.234375 103.769531 366.824219 104.277344 363.421875 C 104.78125 360.023438 105.367188 356.636719 106.039062 353.265625 C 106.707031 349.894531 107.460938 346.542969 108.296875 343.207031 C 109.132812 339.875 110.046875 336.5625 111.046875 333.273438 C 112.042969 329.984375 113.121094 326.71875 114.28125 323.484375 C 115.4375 320.25 116.675781 317.042969 117.988281 313.867188 C 119.304688 310.691406 120.699219 307.550781 122.167969 304.441406 C 123.636719 301.335938 125.179688 298.265625 126.800781 295.234375 C 128.421875 292.203125 130.117188 289.214844 131.882812 286.265625 C 133.648438 283.316406 135.488281 280.414062 137.398438 277.554688 C 139.308594 274.699219 141.285156 271.890625 143.332031 269.128906 C 145.382812 266.367188 147.496094 263.660156 149.675781 261 C 151.855469 258.34375 154.101562 255.742188 156.410156 253.195312 C 158.71875 250.648438 161.085938 248.160156 163.515625 245.730469 C 165.949219 243.300781 168.4375 240.929688 170.984375 238.621094 C 173.53125 236.3125 176.132812 234.070312 178.789062 231.890625 C 181.445312 229.707031 184.15625 227.59375 186.914062 225.546875 C 189.675781 223.5 192.484375 221.519531 195.34375 219.609375 C 198.199219 217.703125 201.105469 215.863281 204.050781 214.097656 C 207 212.328125 209.992188 210.636719 213.023438 209.015625 C 216.054688 207.394531 219.121094 205.851562 222.230469 204.378906 C 225.335938 202.910156 228.476562 201.519531 231.652344 200.203125 C 234.828125 198.886719 238.035156 197.652344 241.269531 196.492188 C 244.507812 195.335938 247.769531 194.257812 251.058594 193.257812 C 254.347656 192.261719 257.660156 191.34375 260.996094 190.507812 C 264.328125 189.675781 267.679688 188.921875 271.050781 188.25 C 274.421875 187.582031 277.808594 186.992188 281.210938 186.488281 C 284.609375 185.984375 288.019531 185.5625 291.441406 185.226562 C 294.859375 184.890625 298.289062 184.636719 301.722656 184.46875 C 305.152344 184.300781 308.589844 184.214844 312.027344 184.214844 C 315.464844 184.214844 318.898438 184.300781 322.332031 184.46875 C 325.765625 184.636719 329.191406 184.890625 332.613281 185.226562 C 336.03125 185.5625 339.441406 185.984375 342.84375 186.488281 C 346.242188 186.992188 349.628906 187.582031 353 188.25 C 356.371094 188.921875 359.722656 189.675781 363.058594 190.507812 C 366.390625 191.34375 369.703125 192.261719 372.992188 193.257812 C 376.28125 194.257812 379.542969 195.335938 382.78125 196.492188 C 386.015625 197.652344 389.222656 198.886719 392.398438 200.203125 C 395.574219 201.519531 398.714844 202.910156 401.824219 204.378906 C 404.929688 205.851562 408 207.394531 411.03125 209.015625 C 414.0625 210.636719 417.050781 212.328125 420 214.097656 C 422.949219 215.863281 425.851562 217.703125 428.710938 219.609375 C 431.566406 221.519531 434.375 223.5 437.136719 225.546875 C 439.898438 227.59375 442.605469 229.707031 445.265625 231.890625 C 447.921875 234.070312 450.523438 236.3125 453.070312 238.621094 C 455.617188 240.929688 458.105469 243.300781 460.535156 245.730469 C 462.964844 248.160156 465.335938 250.648438 467.644531 253.195312 C 469.953125 255.742188 472.195312 258.34375 474.375 261 C 476.558594 263.660156 478.671875 266.367188 480.71875 269.128906 C 482.765625 271.890625 484.746094 274.699219 486.65625 277.554688 C 488.5625 280.414062 490.402344 283.316406 492.167969 286.265625 C 493.9375 289.214844 495.628906 292.203125 497.25 295.234375 C 498.871094 298.265625 500.414062 301.335938 501.886719 304.441406 C 503.355469 307.550781 504.746094 310.691406 506.0625 313.867188 C 507.378906 317.042969 508.613281 320.25 509.773438 323.484375 C 510.929688 326.71875 512.007812 329.984375 513.007812 333.273438 C 514.003906 336.5625 514.921875 339.875 515.753906 343.207031 C 516.589844 346.542969 517.34375 349.894531 518.015625 353.265625 C 518.683594 356.636719 519.273438 360.023438 519.777344 363.421875 C 520.28125 366.824219 520.703125 370.234375 521.039062 373.652344 C 521.375 377.074219 521.628906 380.5 521.796875 383.933594 C 521.964844 387.367188 522.050781 390.800781 522.050781 394.238281 Z M 522.050781 394.238281 " fill-opacity="1" fill-rule="nonzero"/></g><path fill="#d8d8d8" d="M 494.292969 394.238281 C 494.296875 397.222656 494.226562 400.203125 494.082031 403.183594 C 493.941406 406.164062 493.722656 409.136719 493.433594 412.105469 C 493.144531 415.074219 492.785156 418.035156 492.347656 420.984375 C 491.914062 423.9375 491.410156 426.875 490.828125 429.800781 C 490.25 432.726562 489.601562 435.636719 488.878906 438.53125 C 488.15625 441.425781 487.367188 444.300781 486.503906 447.15625 C 485.640625 450.011719 484.707031 452.84375 483.707031 455.65625 C 482.703125 458.464844 481.632812 461.25 480.496094 464.003906 C 479.355469 466.761719 478.152344 469.488281 476.878906 472.1875 C 475.605469 474.886719 474.269531 477.550781 472.863281 480.183594 C 471.460938 482.816406 469.992188 485.410156 468.464844 487.972656 C 466.933594 490.53125 465.339844 493.054688 463.683594 495.535156 C 462.03125 498.015625 460.316406 500.457031 458.542969 502.855469 C 456.765625 505.25 454.933594 507.605469 453.042969 509.914062 C 451.15625 512.21875 449.207031 514.480469 447.207031 516.691406 C 445.207031 518.90625 443.152344 521.066406 441.046875 523.179688 C 438.9375 525.289062 436.78125 527.347656 434.574219 529.351562 C 432.363281 531.359375 430.109375 533.308594 427.804688 535.203125 C 425.5 537.097656 423.152344 538.933594 420.757812 540.714844 C 418.363281 542.492188 415.925781 544.210938 413.449219 545.871094 C 410.96875 547.53125 408.449219 549.128906 405.894531 550.664062 C 403.335938 552.203125 400.742188 553.671875 398.113281 555.082031 C 395.484375 556.492188 392.820312 557.835938 390.125 559.113281 C 387.429688 560.390625 384.707031 561.601562 381.953125 562.746094 C 379.195312 563.890625 376.414062 564.964844 373.609375 565.972656 C 370.800781 566.980469 367.96875 567.917969 365.117188 568.785156 C 362.261719 569.652344 359.386719 570.453125 356.496094 571.179688 C 353.601562 571.90625 350.695312 572.5625 347.769531 573.148438 C 344.84375 573.730469 341.90625 574.242188 338.957031 574.683594 C 336.003906 575.125 333.046875 575.492188 330.078125 575.785156 C 327.109375 576.082031 324.136719 576.304688 321.15625 576.453125 C 318.175781 576.601562 315.195312 576.675781 312.214844 576.679688 C 309.230469 576.683594 306.25 576.613281 303.269531 576.46875 C 300.289062 576.324219 297.316406 576.105469 294.347656 575.816406 C 291.378906 575.527344 288.417969 575.164062 285.46875 574.730469 C 282.515625 574.292969 279.578125 573.785156 276.652344 573.207031 C 273.726562 572.625 270.816406 571.976562 267.921875 571.253906 C 265.027344 570.53125 262.152344 569.738281 259.296875 568.875 C 256.441406 568.011719 253.609375 567.078125 250.800781 566.074219 C 247.992188 565.070312 245.207031 564 242.453125 562.859375 C 239.695312 561.722656 236.96875 560.515625 234.269531 559.242188 C 231.574219 557.96875 228.90625 556.628906 226.277344 555.226562 C 223.644531 553.820312 221.046875 552.351562 218.488281 550.820312 C 215.929688 549.289062 213.410156 547.695312 210.925781 546.039062 C 208.445312 544.386719 206.007812 542.667969 203.609375 540.894531 C 201.210938 539.121094 198.859375 537.285156 196.554688 535.394531 C 194.246094 533.503906 191.988281 531.558594 189.773438 529.558594 C 187.5625 527.554688 185.402344 525.5 183.292969 523.390625 C 181.179688 521.285156 179.121094 519.125 177.117188 516.917969 C 175.113281 514.707031 173.164062 512.453125 171.269531 510.148438 C 169.375 507.84375 167.539062 505.492188 165.761719 503.097656 C 163.984375 500.703125 162.265625 498.265625 160.605469 495.785156 C 158.945312 493.308594 157.351562 490.789062 155.816406 488.230469 C 154.28125 485.675781 152.808594 483.082031 151.402344 480.449219 C 149.992188 477.820312 148.652344 475.15625 147.375 472.460938 C 146.097656 469.765625 144.886719 467.039062 143.742188 464.285156 C 142.601562 461.53125 141.527344 458.75 140.519531 455.941406 C 139.511719 453.132812 138.574219 450.300781 137.707031 447.449219 C 136.839844 444.59375 136.042969 441.71875 135.316406 438.828125 C 134.589844 435.933594 133.933594 433.023438 133.351562 430.097656 C 132.769531 427.175781 132.257812 424.234375 131.816406 421.285156 C 131.378906 418.335938 131.011719 415.375 130.71875 412.40625 C 130.421875 409.4375 130.203125 406.464844 130.054688 403.484375 C 129.90625 400.507812 129.832031 397.527344 129.832031 394.542969 C 129.828125 391.558594 129.902344 388.578125 130.046875 385.597656 C 130.191406 382.621094 130.410156 379.644531 130.699219 376.675781 C 130.992188 373.707031 131.355469 370.75 131.789062 367.796875 C 132.226562 364.847656 132.734375 361.90625 133.316406 358.980469 C 133.894531 356.054688 134.546875 353.148438 135.269531 350.253906 C 135.996094 347.359375 136.789062 344.484375 137.652344 341.628906 C 138.519531 338.773438 139.453125 335.941406 140.457031 333.132812 C 141.460938 330.324219 142.53125 327.542969 143.671875 324.785156 C 144.8125 322.027344 146.019531 319.300781 147.292969 316.605469 C 148.566406 313.90625 149.90625 311.242188 151.3125 308.613281 C 152.71875 305.980469 154.1875 303.386719 155.71875 300.828125 C 157.25 298.269531 158.847656 295.746094 160.503906 293.265625 C 162.160156 290.785156 163.875 288.347656 165.652344 285.949219 C 167.425781 283.554688 169.261719 281.203125 171.152344 278.894531 C 173.042969 276.589844 174.992188 274.332031 176.992188 272.121094 C 178.996094 269.910156 181.050781 267.75 183.160156 265.636719 C 185.269531 263.527344 187.425781 261.472656 189.636719 259.46875 C 191.847656 257.464844 194.101562 255.515625 196.410156 253.621094 C 198.714844 251.726562 201.0625 249.894531 203.460938 248.117188 C 205.855469 246.335938 208.292969 244.621094 210.773438 242.960938 C 213.25 241.304688 215.769531 239.707031 218.328125 238.171875 C 220.886719 236.640625 223.480469 235.167969 226.109375 233.761719 C 228.742188 232.355469 231.40625 231.011719 234.101562 229.738281 C 236.796875 228.460938 239.523438 227.25 242.277344 226.109375 C 245.035156 224.96875 247.816406 223.894531 250.625 222.886719 C 253.433594 221.882812 256.265625 220.945312 259.117188 220.078125 C 261.972656 219.210938 264.847656 218.417969 267.738281 217.691406 C 270.632812 216.964844 273.542969 216.3125 276.46875 215.726562 C 279.394531 215.144531 282.332031 214.636719 285.28125 214.195312 C 288.234375 213.757812 291.191406 213.394531 294.160156 213.101562 C 297.128906 212.808594 300.101562 212.585938 303.082031 212.441406 C 306.0625 212.292969 309.042969 212.21875 312.027344 212.21875 C 315.007812 212.214844 317.988281 212.285156 320.964844 212.425781 C 323.945312 212.570312 326.917969 212.785156 329.882812 213.074219 C 332.851562 213.359375 335.808594 213.722656 338.757812 214.15625 C 341.710938 214.589844 344.644531 215.097656 347.570312 215.675781 C 350.496094 216.253906 353.40625 216.902344 356.296875 217.625 C 359.191406 218.34375 362.0625 219.136719 364.917969 220 C 367.773438 220.859375 370.601562 221.792969 373.410156 222.792969 C 376.21875 223.796875 379.003906 224.867188 381.757812 226.003906 C 384.511719 227.140625 387.238281 228.347656 389.9375 229.621094 C 392.632812 230.890625 395.296875 232.230469 397.925781 233.632812 C 400.558594 235.035156 403.152344 236.5 405.710938 238.03125 C 408.269531 239.5625 410.789062 241.15625 413.269531 242.808594 C 415.75 244.464844 418.1875 246.179688 420.582031 247.953125 C 422.980469 249.726562 425.332031 251.558594 427.636719 253.449219 C 429.941406 255.335938 432.203125 257.28125 434.414062 259.285156 C 436.621094 261.285156 438.78125 263.335938 440.890625 265.445312 C 443.003906 267.550781 445.058594 269.707031 447.0625 271.917969 C 449.066406 274.125 451.015625 276.378906 452.90625 278.683594 C 454.800781 280.988281 456.632812 283.335938 458.414062 285.730469 C 460.191406 288.125 461.90625 290.558594 463.566406 293.039062 C 465.222656 295.515625 466.816406 298.03125 468.351562 300.589844 C 469.886719 303.144531 471.355469 305.738281 472.761719 308.367188 C 474.167969 310.996094 475.511719 313.660156 476.785156 316.351562 C 478.0625 319.046875 479.269531 321.773438 480.414062 324.527344 C 481.554688 327.28125 482.628906 330.0625 483.632812 332.867188 C 484.640625 335.675781 485.574219 338.503906 486.441406 341.359375 C 487.308594 344.210938 488.101562 347.082031 488.828125 349.976562 C 489.550781 352.867188 490.207031 355.773438 490.789062 358.699219 C 491.371094 361.621094 491.878906 364.558594 492.316406 367.507812 C 492.757812 370.457031 493.121094 373.414062 493.414062 376.382812 C 493.707031 379.351562 493.925781 382.324219 494.070312 385.300781 C 494.21875 388.277344 494.292969 391.257812 494.292969 394.238281 Z M 494.292969 394.238281 " fill-opacity="1" fill-rule="nonzero"/><path fill="#c07f46" d="M 452.601562 328.605469 C 450.925781 325.488281 449.152344 322.421875 447.285156 319.414062 C 445.417969 316.402344 443.460938 313.453125 441.414062 310.5625 C 439.367188 307.675781 437.234375 304.851562 435.011719 302.089844 C 432.789062 299.332031 430.484375 296.644531 428.097656 294.027344 C 425.710938 291.414062 423.246094 288.871094 420.703125 286.40625 C 418.160156 283.941406 415.542969 281.554688 412.855469 279.253906 C 410.164062 276.949219 407.40625 274.730469 404.582031 272.59375 C 401.753906 270.460938 398.867188 268.414062 395.914062 266.457031 C 392.960938 264.5 389.953125 262.636719 386.886719 260.863281 C 383.820312 259.09375 380.703125 257.417969 377.53125 255.835938 C 374.363281 254.257812 371.144531 252.777344 367.886719 251.394531 C 364.625 250.011719 361.324219 248.730469 357.984375 247.550781 C 354.644531 246.371094 351.273438 245.296875 347.867188 244.324219 C 344.460938 243.355469 341.027344 242.488281 337.570312 241.726562 C 334.109375 240.964844 330.632812 240.3125 327.132812 239.765625 C 323.632812 239.21875 320.121094 238.78125 316.59375 238.449219 C 313.066406 238.121094 309.535156 237.898438 305.996094 237.785156 C 302.453125 237.671875 298.914062 237.667969 295.375 237.773438 C 291.835938 237.875 288.300781 238.089844 284.773438 238.410156 C 281.246094 238.734375 277.734375 239.164062 274.234375 239.699219 C 270.730469 240.238281 267.25 240.882812 263.789062 241.636719 C 260.328125 242.386719 256.894531 243.246094 253.488281 244.207031 C 250.078125 245.171875 246.703125 246.238281 243.359375 247.410156 C 240.019531 248.582031 236.714844 249.855469 233.449219 251.226562 C 230.1875 252.601562 226.96875 254.074219 223.792969 255.648438 C 220.621094 257.21875 217.496094 258.886719 214.425781 260.652344 C 211.355469 262.414062 208.339844 264.273438 205.382812 266.222656 C 202.429688 268.171875 199.535156 270.210938 196.703125 272.335938 C 193.871094 274.464844 191.105469 276.675781 188.410156 278.976562 C 185.714844 281.273438 183.09375 283.648438 180.546875 286.109375 C 177.996094 288.566406 175.523438 291.101562 173.132812 293.714844 C 170.738281 296.324219 168.429688 299.007812 166.199219 301.757812 C 164.746094 304.058594 163.347656 306.390625 162.003906 308.753906 C 160.660156 311.121094 159.371094 313.515625 158.140625 315.941406 C 156.910156 318.367188 155.738281 320.820312 154.625 323.300781 C 153.507812 325.785156 152.453125 328.289062 151.457031 330.820312 C 150.460938 333.351562 149.523438 335.90625 148.648438 338.480469 C 147.773438 341.054688 146.957031 343.652344 146.207031 346.265625 C 145.453125 348.878906 144.761719 351.507812 144.132812 354.15625 C 143.503906 356.800781 142.9375 359.460938 142.433594 362.136719 C 141.929688 364.808594 141.492188 367.492188 141.113281 370.1875 C 140.738281 372.878906 140.425781 375.582031 140.175781 378.289062 C 139.929688 381 139.742188 383.710938 139.625 386.429688 C 139.503906 389.148438 139.445312 391.867188 139.453125 394.585938 C 139.460938 397.308594 139.535156 400.027344 139.667969 402.742188 C 139.804688 405.460938 140.007812 408.171875 140.269531 410.878906 C 140.535156 413.585938 140.863281 416.285156 141.253906 418.976562 C 141.648438 421.667969 142.101562 424.351562 142.621094 427.019531 C 143.140625 429.691406 143.71875 432.347656 144.363281 434.992188 C 145.007812 437.632812 145.714844 440.257812 146.484375 442.867188 C 147.25 445.476562 148.082031 448.066406 148.96875 450.636719 C 149.859375 453.207031 150.8125 455.757812 151.824219 458.28125 C 152.832031 460.808594 153.902344 463.308594 155.03125 465.78125 C 156.160156 468.257812 157.347656 470.703125 158.59375 473.125 C 159.835938 475.542969 161.136719 477.929688 162.496094 480.289062 C 163.851562 482.644531 165.265625 484.96875 166.730469 487.257812 C 168.199219 489.550781 169.71875 491.804688 171.292969 494.023438 C 172.867188 496.242188 174.492188 498.421875 176.167969 500.566406 C 177.84375 502.707031 179.570312 504.808594 181.347656 506.867188 C 183.125 508.929688 184.945312 510.945312 186.816406 512.921875 C 188.6875 514.894531 190.605469 516.824219 192.570312 518.707031 C 194.53125 520.59375 196.535156 522.429688 198.585938 524.21875 C 200.632812 526.007812 202.726562 527.746094 204.855469 529.4375 C 206.988281 531.128906 209.15625 532.765625 211.367188 534.355469 C 213.574219 535.941406 215.820312 537.476562 218.101562 538.957031 C 220.382812 540.441406 222.699219 541.867188 225.046875 543.238281 C 227.394531 544.613281 229.773438 545.929688 232.183594 547.1875 C 234.597656 548.449219 237.035156 549.652344 239.503906 550.796875 C 241.96875 551.941406 244.464844 553.027344 246.984375 554.050781 C 249.5 555.078125 252.042969 556.046875 254.609375 556.953125 C 257.171875 557.859375 259.757812 558.707031 262.363281 559.492188 C 264.964844 560.277344 267.585938 561 270.226562 561.660156 C 272.863281 562.320312 275.519531 562.917969 278.183594 563.453125 C 280.851562 563.988281 283.53125 564.460938 286.21875 564.871094 C 288.910156 565.28125 291.605469 565.625 294.3125 565.90625 C 297.015625 566.1875 299.726562 566.40625 302.445312 566.558594 C 305.160156 566.714844 307.878906 566.804688 310.597656 566.828125 C 313.316406 566.851562 316.035156 566.8125 318.753906 566.710938 C 321.472656 566.609375 324.1875 566.441406 326.898438 566.207031 C 329.609375 565.976562 332.3125 565.683594 335.007812 565.324219 C 337.703125 564.964844 340.390625 564.542969 343.066406 564.054688 C 345.742188 563.570312 348.40625 563.019531 351.058594 562.40625 C 353.707031 561.796875 356.34375 561.121094 358.960938 560.386719 C 361.582031 559.648438 364.179688 558.851562 366.761719 557.992188 C 369.34375 557.132812 371.902344 556.214844 374.4375 555.234375 C 376.976562 554.253906 379.488281 553.214844 381.976562 552.113281 C 384.464844 551.015625 386.925781 549.859375 389.359375 548.644531 C 391.792969 547.429688 394.199219 546.15625 396.570312 544.828125 C 398.945312 543.5 401.285156 542.117188 403.59375 540.675781 C 405.902344 539.238281 408.175781 537.746094 410.414062 536.199219 C 412.652344 534.652344 414.851562 533.050781 417.015625 531.402344 C 419.175781 529.75 421.296875 528.050781 423.378906 526.300781 C 425.460938 524.550781 427.5 522.75 429.5 520.902344 C 431.496094 519.054688 433.445312 517.164062 435.355469 515.222656 C 437.261719 513.285156 439.121094 511.300781 440.9375 509.273438 C 442.75 507.246094 444.515625 505.175781 446.230469 503.066406 C 448.277344 499.847656 450.214844 496.5625 452.042969 493.21875 C 453.871094 489.871094 455.585938 486.464844 457.1875 483.003906 C 458.792969 479.542969 460.277344 476.03125 461.648438 472.472656 C 463.019531 468.914062 464.269531 465.3125 465.402344 461.671875 C 466.535156 458.027344 467.542969 454.351562 468.433594 450.644531 C 469.320312 446.933594 470.085938 443.199219 470.726562 439.441406 C 471.367188 435.679688 471.886719 431.902344 472.277344 428.109375 C 472.667969 424.316406 472.933594 420.511719 473.070312 416.699219 C 473.210938 412.890625 473.222656 409.078125 473.109375 405.265625 C 472.996094 401.453125 472.757812 397.648438 472.390625 393.851562 C 472.027344 390.054688 471.535156 386.273438 470.921875 382.507812 C 470.304688 378.746094 469.566406 375.003906 468.703125 371.289062 C 467.839844 367.574219 466.855469 363.894531 465.746094 360.242188 C 464.640625 356.59375 463.414062 352.984375 462.066406 349.414062 C 460.722656 345.847656 459.257812 342.324219 457.679688 338.855469 C 456.101562 335.382812 454.40625 331.964844 452.601562 328.605469 Z M 452.601562 328.605469 " fill-opacity="1" fill-rule="nonzero"/><path fill="#cc9c6d" d="M 484.804688 394.238281 C 484.804688 398.398438 484.65625 402.546875 484.355469 406.695312 C 484.058594 410.839844 483.609375 414.972656 483.011719 419.085938 C 482.414062 423.199219 481.667969 427.289062 480.777344 431.347656 C 479.882812 435.410156 478.847656 439.429688 477.664062 443.417969 C 476.480469 447.402344 475.15625 451.339844 473.6875 455.230469 C 472.21875 459.121094 470.613281 462.949219 468.871094 466.726562 C 467.125 470.5 465.25 474.203125 463.238281 477.84375 C 461.226562 481.480469 459.085938 485.042969 456.816406 488.527344 C 454.546875 492.011719 452.15625 495.40625 449.644531 498.71875 C 447.128906 502.03125 444.5 505.246094 441.753906 508.367188 C 439.007812 511.488281 436.152344 514.507812 433.1875 517.421875 C 430.222656 520.335938 427.15625 523.140625 423.992188 525.835938 C 420.824219 528.527344 417.566406 531.105469 414.210938 533.5625 C 410.859375 536.019531 407.421875 538.355469 403.902344 540.566406 C 400.382812 542.777344 396.785156 544.855469 393.113281 546.808594 C 389.441406 548.757812 385.707031 550.574219 381.902344 552.253906 C 378.101562 553.933594 374.242188 555.476562 370.328125 556.878906 C 366.414062 558.28125 362.457031 559.539062 358.453125 560.65625 C 354.445312 561.773438 350.40625 562.746094 346.332031 563.570312 C 342.257812 564.394531 338.160156 565.070312 334.035156 565.597656 C 329.910156 566.128906 325.773438 566.507812 321.625 566.738281 C 317.472656 566.96875 313.320312 567.046875 309.160156 566.976562 C 305.003906 566.910156 300.855469 566.6875 296.714844 566.320312 C 292.574219 565.949219 288.453125 565.433594 284.347656 564.765625 C 280.246094 564.097656 276.171875 563.285156 272.125 562.324219 C 268.082031 561.363281 264.078125 560.257812 260.113281 559.007812 C 256.148438 557.757812 252.234375 556.363281 248.367188 554.832031 C 244.503906 553.300781 240.699219 551.628906 236.957031 549.820312 C 233.210938 548.015625 229.539062 546.074219 225.933594 544 C 222.332031 541.929688 218.804688 539.726562 215.363281 537.402344 C 211.917969 535.074219 208.558594 532.625 205.292969 530.054688 C 202.023438 527.484375 198.851562 524.800781 195.777344 522.003906 C 196.792969 518.503906 194.972656 513.496094 183.839844 502.75 C 169.210938 488.75 172.992188 479.160156 176.839844 465.472656 C 180.339844 452.382812 172.359375 410.761719 171.695312 407.191406 C 171.976562 408.171875 173.585938 413.492188 182.019531 441.878906 C 192.523438 476.882812 235.367188 520.21875 267.921875 532.015625 C 300.476562 543.8125 364.53125 545.210938 401.320312 506.53125 C 438.109375 467.851562 440.105469 424.867188 434.925781 391.613281 C 429.746094 358.359375 399.535156 337.566406 382.035156 337.566406 C 364.53125 337.566406 361.277344 347.472656 382.035156 347.613281 C 402.792969 347.753906 423.515625 379.921875 427.539062 397.039062 C 439.335938 449.546875 408.183594 488.574219 383.1875 511.257812 C 358.195312 533.941406 294.523438 538.140625 270.195312 525.890625 C 245.867188 513.636719 204.214844 481.539062 193.746094 448.003906 C 183.5625 415.242188 198.089844 374.777344 198.894531 372.605469 C 198.894531 373.0625 198.402344 375.40625 196.09375 388.078125 C 194.425781 398.890625 194.109375 409.742188 195.148438 420.632812 L 201.308594 394.660156 C 201.308594 394.660156 205.542969 371.066406 204.597656 358.21875 C 203.652344 345.375 230.082031 324.828125 230.082031 324.828125 C 230.082031 324.828125 224.902344 325.28125 202.707031 342.75 C 199.566406 345.28125 196.675781 348.074219 194.03125 351.125 C 191.390625 354.171875 189.035156 357.429688 186.972656 360.898438 C 184.90625 364.367188 183.164062 367.988281 181.746094 371.769531 C 180.328125 375.546875 179.25 379.417969 178.519531 383.386719 C 180.867188 370.160156 184.371094 357.242188 189.023438 344.640625 C 198.929688 315.867188 231.972656 301.6875 249.4375 295.144531 C 262.394531 289.570312 274.355469 282.347656 285.316406 273.476562 L 300.789062 291.328125 L 327.078125 303.859375 L 322.527344 337.566406 L 309.015625 369.738281 L 313.390625 388.148438 L 292.632812 373.097656 L 269.742188 366.902344 C 269.226562 367.011719 268.71875 367.144531 268.214844 367.304688 C 267.714844 367.460938 267.21875 367.644531 266.734375 367.851562 C 266.25 368.058594 265.777344 368.289062 265.316406 368.542969 C 264.855469 368.796875 264.40625 369.074219 263.972656 369.371094 C 263.539062 369.667969 263.121094 369.984375 262.714844 370.324219 C 262.3125 370.660156 261.925781 371.019531 261.558594 371.394531 C 261.1875 371.769531 260.839844 372.164062 260.511719 372.574219 C 260.179688 372.984375 259.871094 373.410156 259.582031 373.851562 C 259.292969 374.292969 259.027344 374.746094 258.785156 375.210938 C 258.539062 375.679688 258.320312 376.15625 258.121094 376.644531 C 257.925781 377.132812 257.753906 377.628906 257.605469 378.136719 C 257.453125 378.640625 257.332031 379.152344 257.234375 379.667969 C 257.132812 380.1875 257.0625 380.707031 257.015625 381.230469 C 256.964844 381.757812 256.945312 382.28125 256.949219 382.808594 C 256.953125 383.335938 256.980469 383.859375 257.039062 384.382812 C 257.09375 384.90625 257.171875 385.425781 257.28125 385.945312 C 259.273438 402.394531 273.523438 420.210938 286.71875 430.609375 C 299.914062 441.003906 309.015625 465.4375 309.015625 465.4375 C 309.015625 465.4375 301.523438 476.324219 300.789062 477.722656 C 300.507812 481.339844 300.507812 484.957031 300.789062 488.574219 L 269.285156 502.261719 L 307.230469 512.203125 C 307.230469 512.203125 339.121094 508.421875 359.421875 505.203125 C 379.722656 501.980469 391.449219 478.597656 391.449219 478.597656 C 391.449219 478.597656 409.441406 461.445312 410.039062 438.097656 C 410.632812 414.75 386.304688 394.238281 379.234375 394.238281 C 372.164062 394.238281 387.566406 408.242188 387.566406 408.242188 L 388.195312 427.878906 L 380.179688 455.25 L 365.058594 473.664062 L 324.488281 489.519531 L 315 486.230469 L 317.976562 467.292969 L 343.074219 455.566406 L 337.367188 445.273438 C 337.367188 445.273438 362.710938 402.710938 364.53125 394.238281 C 366.351562 385.769531 358.441406 377.960938 358.441406 377.960938 L 343.074219 415.417969 L 339.574219 364.449219 C 340.058594 355.710938 341.222656 347.066406 343.074219 338.511719 C 345.628906 329.0625 345.246094 311.59375 353.261719 307.007812 C 361.277344 302.425781 398.765625 293.007812 436.324219 347.472656 C 473.535156 401.238281 441.085938 478.25 440.140625 480.523438 C 441.085938 479.789062 455.890625 467.710938 462.296875 435.265625 C 468.25 405.195312 465.796875 359.480469 452.601562 328.605469 C 451.152344 325.207031 449.507812 321.90625 447.667969 318.699219 C 430.164062 288.492188 412.277344 275.75 383.960938 254.503906 C 355.640625 233.257812 349.480469 241.761719 333.660156 232.800781 C 327.285156 229.386719 321.113281 225.640625 315.140625 221.566406 C 315.140625 221.566406 317.207031 221.566406 321.128906 221.84375 L 323.683594 221.84375 C 332.601562 222.667969 341.457031 223.941406 350.25 225.660156 L 351.230469 225.871094 C 353.582031 226.417969 355.925781 227.015625 358.253906 227.664062 C 360.582031 228.308594 362.894531 229.003906 365.195312 229.75 C 367.492188 230.492188 369.773438 231.285156 372.039062 232.125 C 374.308594 232.964844 376.554688 233.851562 378.78125 234.785156 C 381.011719 235.71875 383.21875 236.699219 385.40625 237.726562 C 387.59375 238.753906 389.757812 239.824219 391.902344 240.941406 C 394.042969 242.058594 396.164062 243.222656 398.257812 244.425781 C 400.351562 245.632812 402.417969 246.882812 404.460938 248.175781 C 406.5 249.46875 408.515625 250.804688 410.5 252.179688 C 412.484375 253.558594 414.441406 254.976562 416.367188 256.4375 C 418.292969 257.894531 420.1875 259.394531 422.050781 260.933594 C 423.914062 262.472656 425.742188 264.050781 427.539062 265.667969 C 429.335938 267.28125 431.097656 268.933594 432.824219 270.625 C 434.554688 272.3125 436.246094 274.039062 437.898438 275.800781 C 439.554688 277.558594 441.171875 279.355469 442.753906 281.183594 C 444.332031 283.011719 445.871094 284.871094 447.375 286.765625 C 448.875 288.65625 450.339844 290.582031 451.757812 292.535156 C 453.179688 294.488281 454.558594 296.472656 455.898438 298.484375 C 457.234375 300.496094 458.53125 302.535156 459.785156 304.605469 C 461.035156 306.671875 462.246094 308.761719 463.410156 310.878906 C 464.574219 312.996094 465.691406 315.136719 466.769531 317.300781 C 467.84375 319.464844 468.871094 321.652344 469.855469 323.859375 C 470.839844 326.066406 471.773438 328.292969 472.664062 330.539062 C 473.554688 332.785156 474.394531 335.050781 475.191406 337.332031 C 475.984375 339.613281 476.734375 341.910156 477.429688 344.226562 C 478.128906 346.539062 478.777344 348.867188 479.378906 351.207031 C 479.980469 353.546875 480.53125 355.898438 481.035156 358.261719 C 481.535156 360.625 481.988281 363 482.390625 365.382812 C 482.792969 367.765625 483.144531 370.15625 483.449219 372.550781 C 483.75 374.949219 484.003906 377.351562 484.203125 379.761719 C 484.40625 382.167969 484.554688 384.578125 484.65625 386.992188 C 484.757812 389.40625 484.804688 391.824219 484.804688 394.238281 Z M 484.804688 394.238281 " fill-opacity="1" fill-rule="nonzero"/><path fill="#89552e" d="M 484.804688 394.238281 C 484.804688 391.820312 484.753906 389.40625 484.652344 386.992188 C 484.550781 384.574219 484.398438 382.164062 484.199219 379.753906 C 483.996094 377.347656 483.742188 374.941406 483.4375 372.546875 C 483.136719 370.148438 482.78125 367.757812 482.378906 365.375 C 481.972656 362.988281 481.519531 360.617188 481.015625 358.253906 C 480.515625 355.886719 479.960938 353.535156 479.359375 351.195312 C 478.757812 348.851562 478.105469 346.527344 477.40625 344.210938 C 476.707031 341.898438 475.957031 339.601562 475.164062 337.316406 C 474.367188 335.035156 473.523438 332.769531 472.632812 330.523438 C 471.742188 328.277344 470.800781 326.050781 469.816406 323.84375 C 468.832031 321.636719 467.804688 319.449219 466.726562 317.285156 C 465.648438 315.121094 464.527344 312.980469 463.363281 310.863281 C 462.195312 308.746094 460.984375 306.652344 459.730469 304.585938 C 458.476562 302.519531 457.179688 300.480469 455.84375 298.46875 C 454.503906 296.457031 453.121094 294.472656 451.699219 292.519531 C 450.277344 290.566406 448.8125 288.640625 447.308594 286.75 C 445.804688 284.855469 444.261719 282.996094 442.683594 281.167969 C 441.101562 279.339844 439.480469 277.546875 437.824219 275.785156 C 436.167969 274.027344 434.472656 272.300781 432.746094 270.613281 C 431.015625 268.921875 429.253906 267.273438 427.453125 265.65625 C 425.65625 264.042969 423.824219 262.464844 421.957031 260.925781 C 420.09375 259.390625 418.199219 257.890625 416.269531 256.433594 C 414.34375 254.972656 412.386719 253.554688 410.398438 252.179688 C 408.410156 250.804688 406.398438 249.46875 404.355469 248.175781 C 402.3125 246.886719 400.242188 245.636719 398.144531 244.429688 C 396.050781 243.226562 393.929688 242.066406 391.789062 240.949219 C 389.644531 239.832031 387.476562 238.761719 385.289062 237.738281 C 383.097656 236.710938 380.890625 235.734375 378.660156 234.800781 C 376.429688 233.867188 374.179688 232.984375 371.914062 232.144531 C 369.644531 231.308594 367.363281 230.515625 365.0625 229.773438 C 362.761719 229.03125 360.445312 228.339844 358.117188 227.691406 C 355.785156 227.046875 353.445312 226.453125 351.089844 225.90625 L 350.109375 225.695312 C 341.351562 223.742188 332.496094 222.46875 323.542969 221.878906 L 320.988281 221.878906 L 315.140625 221.703125 L 312.027344 221.703125 C 308.410156 221.703125 304.792969 221.8125 301.183594 222.039062 C 297.574219 222.261719 293.972656 222.597656 290.386719 223.050781 C 286.796875 223.5 283.222656 224.0625 279.671875 224.738281 C 276.117188 225.414062 272.585938 226.199219 269.082031 227.097656 C 265.578125 227.996094 262.105469 229 258.664062 230.117188 C 255.222656 231.234375 251.820312 232.457031 248.457031 233.785156 C 245.09375 235.113281 241.773438 236.546875 238.5 238.085938 C 235.226562 239.625 232.003906 241.265625 228.832031 243.003906 C 225.660156 244.746094 222.546875 246.582031 219.492188 248.519531 C 216.4375 250.457031 213.445312 252.488281 210.519531 254.613281 C 207.589844 256.738281 204.730469 258.949219 201.945312 261.253906 C 199.15625 263.558594 196.441406 265.949219 193.804688 268.425781 C 191.164062 270.898438 188.605469 273.453125 186.128906 276.089844 C 183.652344 278.726562 181.257812 281.4375 178.953125 284.222656 C 176.644531 287.007812 174.429688 289.863281 172.300781 292.789062 C 170.171875 295.714844 168.140625 298.707031 166.199219 301.757812 C 167.910156 299.636719 169.671875 297.558594 171.484375 295.519531 C 173.292969 293.484375 175.152344 291.488281 177.058594 289.539062 C 178.960938 287.589844 180.914062 285.6875 182.910156 283.828125 C 184.902344 281.972656 186.941406 280.160156 189.023438 278.402344 C 191.101562 276.640625 193.226562 274.929688 195.386719 273.269531 C 197.546875 271.609375 199.75 270 201.988281 268.445312 C 204.226562 266.886719 206.5 265.386719 208.808594 263.9375 C 211.117188 262.488281 213.460938 261.09375 215.835938 259.757812 C 218.210938 258.417969 220.613281 257.136719 223.050781 255.914062 C 225.488281 254.691406 227.949219 253.527344 230.441406 252.417969 C 232.933594 251.3125 235.449219 250.261719 237.988281 249.277344 C 240.527344 248.289062 243.089844 247.359375 245.675781 246.492188 C 248.261719 245.625 250.863281 244.820312 253.488281 244.078125 C 256.109375 243.335938 258.75 242.652344 261.402344 242.035156 C 264.058594 241.417969 266.726562 240.863281 269.40625 240.371094 C 272.089844 239.878906 274.78125 239.449219 277.480469 239.085938 C 280.183594 238.71875 282.890625 238.417969 285.605469 238.183594 C 288.324219 237.945312 291.042969 237.773438 293.765625 237.667969 C 296.492188 237.558594 299.214844 237.515625 301.941406 237.535156 C 304.667969 237.558594 307.390625 237.644531 310.113281 237.792969 C 312.835938 237.945312 315.550781 238.160156 318.261719 238.4375 C 320.976562 238.71875 323.679688 239.058594 326.375 239.46875 C 329.070312 239.875 331.753906 240.34375 334.425781 240.878906 C 337.101562 241.414062 339.757812 242.011719 342.402344 242.671875 C 345.046875 243.328125 347.675781 244.050781 350.285156 244.835938 C 352.898438 245.621094 355.488281 246.46875 358.058594 247.375 C 360.628906 248.28125 363.175781 249.25 365.703125 250.277344 C 368.226562 251.304688 370.726562 252.390625 373.199219 253.535156 C 375.671875 254.683594 378.117188 255.886719 380.535156 257.148438 C 382.949219 258.410156 385.335938 259.730469 387.6875 261.105469 C 390.042969 262.476562 392.363281 263.90625 394.648438 265.394531 C 396.9375 266.878906 399.1875 268.414062 401.398438 270.007812 C 403.613281 271.597656 405.785156 273.242188 407.921875 274.933594 C 410.058594 276.628906 412.152344 278.371094 414.207031 280.164062 C 416.257812 281.957031 418.269531 283.800781 420.234375 285.6875 C 422.199219 287.578125 424.121094 289.511719 425.996094 291.488281 C 427.867188 293.46875 429.695312 295.492188 431.472656 297.558594 C 433.253906 299.625 434.980469 301.730469 436.660156 303.878906 C 438.339844 306.027344 439.964844 308.210938 441.539062 310.4375 C 443.117188 312.660156 444.636719 314.921875 446.105469 317.21875 C 447.574219 319.515625 448.988281 321.847656 450.34375 324.210938 C 451.703125 326.574219 453.003906 328.96875 454.25 331.394531 C 455.492188 333.820312 456.679688 336.273438 457.808594 338.753906 C 458.9375 341.234375 460.003906 343.742188 461.015625 346.273438 C 462.023438 348.804688 462.972656 351.359375 463.863281 353.9375 C 464.75 356.515625 465.578125 359.113281 466.34375 361.726562 C 467.109375 364.34375 467.8125 366.976562 468.453125 369.625 C 469.09375 372.277344 469.671875 374.9375 470.1875 377.617188 C 470.703125 380.292969 471.152344 382.980469 471.542969 385.679688 C 471.929688 388.378906 472.253906 391.082031 472.511719 393.796875 C 472.773438 396.511719 472.96875 399.226562 473.097656 401.953125 C 473.230469 404.675781 473.296875 407.398438 473.296875 410.125 C 473.300781 412.851562 473.238281 415.574219 473.109375 418.296875 C 472.980469 421.019531 472.789062 423.738281 472.535156 426.453125 C 472.277344 429.167969 471.957031 431.875 471.574219 434.574219 C 471.191406 437.269531 470.742188 439.960938 470.230469 442.636719 C 469.71875 445.316406 469.144531 447.980469 468.507812 450.628906 C 467.871094 453.28125 467.171875 455.914062 466.410156 458.53125 C 465.648438 461.148438 464.824219 463.746094 463.9375 466.324219 C 463.054688 468.902344 462.105469 471.457031 461.101562 473.992188 C 460.09375 476.523438 459.027344 479.035156 457.902344 481.515625 C 456.777344 484 455.597656 486.453125 454.355469 488.882812 C 453.113281 491.308594 451.816406 493.703125 450.460938 496.070312 C 449.105469 498.4375 447.695312 500.769531 446.230469 503.066406 C 449.332031 499.257812 452.261719 495.328125 455.027344 491.269531 C 457.789062 487.210938 460.371094 483.042969 462.777344 478.761719 C 465.183594 474.480469 467.402344 470.105469 469.429688 465.636719 C 471.460938 461.167969 473.296875 456.617188 474.9375 451.992188 C 476.578125 447.363281 478.015625 442.675781 479.253906 437.925781 C 480.492188 433.171875 481.523438 428.378906 482.351562 423.539062 C 483.179688 418.699219 483.796875 413.835938 484.207031 408.941406 C 484.617188 404.050781 484.816406 399.148438 484.804688 394.238281 Z M 484.804688 394.238281 " fill-opacity="1" fill-rule="nonzero"/><path fill="#efd7b6" d="M 268.304688 358.253906 C 295.679688 356.785156 312.65625 414.507812 312.65625 414.507812 L 314.335938 400.820312 C 315.980469 387.238281 340.519531 334.734375 356.097656 370.613281 C 371.671875 406.492188 327.777344 425.359375 319.761719 430.539062 C 311.746094 435.71875 315 448.039062 315 448.039062 C 308.804688 430.539062 294.734375 429.171875 278.210938 417.832031 C 261.691406 406.492188 240.933594 359.761719 268.304688 358.253906 Z M 294.980469 362.734375 C 302.75 368.054688 313.390625 388.253906 313.390625 388.253906 C 312.914062 386.433594 312.660156 384.585938 312.636719 382.703125 C 312.609375 380.824219 312.8125 378.96875 313.242188 377.136719 C 313.671875 375.308594 314.320312 373.554688 315.179688 371.882812 C 316.039062 370.210938 317.089844 368.667969 318.328125 367.25 C 326.832031 356.996094 352.316406 320.871094 339.574219 308.828125 C 326.832031 296.789062 310.554688 355.210938 309.472656 361.335938 L 308.527344 367.179688 C 308.527344 367.179688 305.691406 328.675781 287.277344 329.308594 C 268.867188 329.9375 287.171875 357.273438 294.980469 362.734375 Z M 288.609375 270.183594 C 281.152344 271.96875 283.988281 293.917969 293.195312 302.738281 C 302.398438 311.558594 310.066406 329.9375 311.152344 340.261719 C 313.40625 330.222656 317.339844 320.886719 322.949219 312.261719 C 333.027344 296.019531 343.53125 250.371094 317.066406 250.023438 C 290.605469 249.671875 303.449219 285.726562 303.449219 285.726562 C 303.449219 285.726562 296.03125 268.433594 288.609375 270.183594 Z M 367.71875 436.558594 C 373.214844 430.539062 371.429688 424.167969 367.71875 421.332031 C 364.007812 418.496094 371.777344 396.828125 377.449219 400.328125 C 383.121094 403.832031 387.003906 423.886719 380.109375 438.835938 C 373.214844 453.78125 361.03125 471.246094 340.273438 475.726562 C 319.515625 480.210938 318.851562 482.027344 320.636719 483.113281 C 322.421875 484.199219 363.097656 479.019531 374.089844 458.332031 C 385.078125 437.644531 384.589844 425.21875 385.042969 419.023438 C 385.5 412.828125 382.035156 407.015625 387.53125 408.242188 C 393.023438 409.464844 396.386719 427.179688 389.664062 445.414062 C 388.625 447.867188 387.464844 450.261719 386.179688 452.59375 C 384.898438 454.925781 383.496094 457.1875 381.980469 459.378906 C 380.464844 461.570312 378.84375 463.675781 377.109375 465.699219 C 375.378906 467.722656 373.546875 469.652344 371.621094 471.488281 C 369.691406 473.324219 367.671875 475.058594 365.566406 476.6875 C 363.457031 478.316406 361.273438 479.835938 359.011719 481.242188 C 356.75 482.644531 354.421875 483.933594 352.027344 485.101562 C 349.632812 486.265625 347.1875 487.308594 344.683594 488.226562 C 325.222656 494.769531 311.605469 496.378906 313.179688 497.605469 C 314.757812 498.832031 327.183594 499.917969 341.183594 495.503906 C 355.1875 491.09375 385.253906 471.421875 391.449219 452.484375 C 397.644531 433.546875 397.820312 427.527344 400.304688 428.226562 C 402.792969 428.929688 404.542969 444.679688 397.820312 457.632812 C 393.617188 464.714844 388.675781 471.238281 383.007812 477.210938 C 377.335938 483.183594 371.070312 488.453125 364.21875 493.019531 C 354.660156 498.339844 352 500.792969 354.835938 501.527344 C 358.527344 500.851562 361.910156 499.441406 364.988281 497.289062 C 382.476562 482.222656 398.191406 465.492188 412.136719 447.09375 L 413.886719 444.820312 L 413.886719 443.910156 C 411.367188 447.410156 408.707031 450.910156 405.871094 454.410156 C 408.707031 449.824219 411.507812 445.171875 414.167969 440.410156 C 414.660156 432.394531 413.75 424.542969 411.4375 416.851562 C 403.875 391.367188 402.054688 380.972656 411.824219 388.078125 C 417.246094 392 422.324219 408.347656 422.148438 425.394531 C 435.414062 397.949219 441.472656 369.175781 422.988281 339.703125 C 420.1875 334.453125 416.96875 329.410156 413.957031 324.230469 C 447.527344 361.789062 443.851562 396.757812 421.796875 432.21875 L 421.484375 434.84375 C 430.515625 422.800781 438.53125 410.097656 440.527344 394.972656 C 441.519531 388.214844 440.996094 381.574219 438.949219 375.058594 C 440.410156 378.136719 441.425781 381.355469 441.996094 384.71875 C 440.722656 373.855469 438.390625 363.226562 434.996094 352.828125 C 442.730469 372.082031 448.121094 393.609375 442.519531 414.296875 C 436.921875 434.984375 422.707031 451.503906 408.882812 467.082031 C 401.6875 474.980469 394.066406 482.449219 386.023438 489.484375 C 382.515625 494.347656 378.222656 498.371094 373.144531 501.5625 C 368.640625 504.332031 363.972656 506.792969 359.140625 508.945312 C 354.859375 511.609375 350.40625 513.957031 345.792969 515.992188 C 341.175781 518.023438 336.441406 519.71875 331.582031 521.082031 C 326.726562 522.445312 321.800781 523.457031 316.800781 524.121094 C 311.800781 524.785156 306.777344 525.09375 301.734375 525.050781 C 312.726562 524.363281 323.355469 522.03125 333.625 518.046875 C 322.019531 521.515625 310.164062 523.089844 298.058594 522.773438 C 292.691406 522.402344 287.429688 521.445312 282.273438 519.902344 C 277.972656 519.25 273.722656 518.355469 269.527344 517.210938 C 265.332031 516.066406 261.214844 514.683594 257.179688 513.0625 C 253.140625 511.441406 249.210938 509.59375 245.390625 507.515625 C 241.566406 505.441406 237.878906 503.152344 234.320312 500.648438 C 230.765625 498.144531 227.363281 495.445312 224.121094 492.546875 C 220.875 489.648438 217.808594 486.574219 214.921875 483.320312 C 212.035156 480.070312 209.34375 476.660156 206.851562 473.097656 C 204.355469 469.53125 202.078125 465.835938 200.011719 462.007812 C 203.058594 466.652344 206.40625 471.070312 210.054688 475.261719 C 213.703125 479.449219 217.617188 483.371094 221.800781 487.027344 C 225.980469 490.683594 230.390625 494.039062 235.03125 497.09375 C 239.671875 500.148438 244.496094 502.875 249.507812 505.273438 C 238.535156 498.726562 228.945312 490.558594 220.734375 480.769531 C 215.496094 476.34375 210.730469 471.457031 206.441406 466.101562 C 202.15625 460.75 198.425781 455.03125 195.253906 448.949219 C 168.511719 399.910156 188.460938 334.171875 237.851562 308.445312 C 192.699219 337.324219 173.585938 398.964844 198.191406 447.304688 C 202.859375 457.097656 208.820312 466.023438 216.082031 474.082031 C 214.167969 471.210938 212.496094 468.199219 211.074219 465.050781 C 196.511719 431.589844 198.160156 423.644531 200.992188 410.199219 C 203.828125 396.757812 208.238281 391.613281 208.238281 391.613281 C 208.238281 391.613281 201.519531 413.738281 205.929688 430.363281 C 210.339844 446.988281 213.734375 453.886719 216.046875 451.085938 C 218.355469 448.285156 215.136719 436.558594 216.921875 435.859375 C 218.707031 435.160156 224.515625 452.136719 232.671875 462.917969 C 240.828125 473.699219 243.453125 481.503906 258.679688 489.835938 C 266.417969 494.222656 274.445312 497.992188 282.761719 501.140625 C 282.761719 501.140625 251.257812 485.773438 239.394531 465.402344 C 227.527344 445.03125 217.515625 421.855469 223.992188 409.640625 C 230.46875 397.425781 236.03125 400.433594 233.546875 406.628906 C 231.0625 412.828125 227.351562 421.507812 231.238281 431.761719 C 233.238281 437.417969 235.773438 442.824219 238.839844 447.980469 C 241.910156 453.132812 245.453125 457.9375 249.472656 462.390625 C 260.289062 475.132812 280.976562 480.804688 280.976562 480.804688 C 280.976562 480.804688 240.09375 449.300781 237.816406 429.664062 C 235.542969 410.027344 250.175781 427.003906 258.503906 431.589844 L 266.835938 436.242188 C 266.835938 436.242188 258.503906 434.285156 256.753906 438.554688 C 255.003906 442.824219 259.765625 449.6875 265.925781 454.832031 C 272.085938 459.976562 276.425781 463.128906 276.425781 463.128906 C 276.425781 463.128906 258.925781 444.714844 262.074219 441.738281 C 265.226562 438.765625 273.066406 441.25 284.023438 448.039062 C 294.980469 454.832031 312.550781 464.738281 315.035156 474.292969 C 315.035156 474.292969 316.050781 465.15625 334.464844 448.039062 C 352.875 430.921875 359.773438 419.792969 362.082031 425.429688 C 364.390625 431.0625 362.222656 442.578125 367.71875 436.558594 Z M 419.417969 444.679688 C 418.527344 447.515625 417.359375 450.234375 415.917969 452.835938 C 421.109375 447.105469 425.6875 440.917969 429.652344 434.28125 C 433.617188 427.640625 436.890625 420.675781 439.476562 413.386719 C 440.789062 409.101562 441.640625 404.726562 442.03125 400.261719 C 439.546875 416.921875 429.570312 431.449219 419.417969 444.679688 Z M 378.535156 488.75 C 380.003906 487.699219 381.402344 486.648438 382.628906 485.632812 L 391.484375 478.632812 C 391.484375 478.632812 391.484375 479.019531 391.238281 479.683594 C 396.316406 474.75 401.25 469.429688 405.976562 464.246094 L 410.316406 459.453125 C 411.027344 457.582031 411.632812 455.679688 412.136719 453.746094 C 402.066406 466.5 390.867188 478.167969 378.535156 488.75 Z M 476.542969 385.734375 C 473.746094 367.742188 469.542969 337.8125 449.207031 305.46875 C 428.871094 273.125 396.492188 253.207031 369.609375 242.460938 C 342.722656 231.714844 302.15625 228.460938 266.136719 237.910156 C 255.183594 240.847656 244.6875 244.949219 234.648438 250.214844 C 224.605469 255.484375 215.265625 261.789062 206.628906 269.136719 C 206.628906 269.136719 224.621094 258.632812 240.898438 251.144531 C 257.175781 243.652344 307.054688 233.359375 331.910156 237.667969 C 342.265625 239.296875 352.394531 241.828125 362.304688 245.253906 C 372.210938 248.683594 381.738281 252.957031 390.890625 258.074219 C 411.296875 268.574219 435.136719 291.921875 444.269531 304.488281 C 453.40625 317.054688 467.023438 346.492188 472.027344 371.976562 C 477.035156 397.460938 471.75 434.984375 471.75 434.984375 L 472.90625 416.746094 C 474.058594 398.542969 474.621094 358.324219 443.957031 307.847656 C 413.292969 257.375 341.675781 239.660156 341.675781 239.660156 C 341.675781 239.660156 349.023438 243.164062 373.179688 254.855469 C 397.332031 266.542969 431.039062 298.257812 443.1875 328.605469 C 455.332031 358.957031 460.96875 408.871094 450.570312 443.59375 C 440.175781 478.320312 434.085938 469.636719 425.824219 474.398438 C 417.5625 479.160156 408.320312 483.953125 382.875 504.78125 C 357.425781 525.609375 345.140625 541.640625 330.824219 543.285156 C 316.507812 544.929688 303.066406 535.023438 286.402344 537.195312 C 269.742188 539.367188 253.148438 529.808594 235.789062 521.582031 C 218.425781 513.359375 171.308594 481.1875 159.722656 415.242188 C 148.136719 349.292969 193.851562 292.726562 193.851562 292.726562 C 203.828125 278.027344 225.8125 262.132812 225.8125 262.132812 L 212.160156 271.726562 C 198.472656 281.28125 186.570312 292.726562 172.886719 313.730469 C 159.199219 334.734375 146.210938 373.238281 146.84375 396.304688 C 147.472656 419.371094 154.683594 458.855469 165.5 476.429688 C 176.316406 494 208.449219 531.734375 235.789062 543.671875 C 263.125 555.609375 304.570312 568.175781 345.769531 557.988281 C 353.835938 555.847656 361.734375 553.203125 369.464844 550.054688 C 377.195312 546.90625 384.691406 543.28125 391.957031 539.175781 C 399.226562 535.074219 406.203125 530.523438 412.886719 525.527344 C 419.574219 520.535156 425.917969 515.136719 431.914062 509.332031 C 444.0625 496.730469 465.308594 462.460938 470.417969 448.808594 C 475.53125 435.160156 479.203125 403.691406 476.542969 385.664062 Z M 221.015625 494.246094 C 165.917969 450.628906 153.632812 358.78125 201.414062 305.644531 C 205.335938 301.261719 209.617188 297.261719 214.257812 293.648438 C 218.902344 290.035156 223.828125 286.867188 229.039062 284.140625 C 234.253906 281.417969 239.664062 279.179688 245.28125 277.425781 C 250.894531 275.675781 256.621094 274.441406 262.460938 273.71875 C 259.472656 273.886719 256.5 274.195312 253.539062 274.648438 C 250.582031 275.097656 247.652344 275.6875 244.75 276.417969 C 241.847656 277.148438 238.984375 278.015625 236.167969 279.019531 C 233.347656 280.023438 230.582031 281.15625 227.871094 282.425781 C 225.160156 283.691406 222.511719 285.082031 219.933594 286.601562 C 217.355469 288.121094 214.855469 289.757812 212.433594 291.515625 C 210.011719 293.273438 207.675781 295.144531 205.433594 297.121094 C 203.1875 299.101562 201.042969 301.183594 199 303.367188 C 148.277344 356.46875 161.089844 453.464844 220.804688 494.316406 Z M 221.015625 494.246094 " fill-opacity="1" fill-rule="nonzero"/></svg>